<?xml version="1.0" standalone="no"?>
<!DOCTYPE svg PUBLIC "-//W3C//DTD SVG 20010904//EN"
 "http://www.w3.org/TR/2001/REC-SVG-20010904/DTD/svg10.dtd">
<svg version="1.0" xmlns="http://www.w3.org/2000/svg"
 width="384.000000pt" height="384.000000pt" viewBox="0 0 384.000000 384.000000"
 preserveAspectRatio="xMidYMid meet">
<metadata>
Created by potrace 1.14, written by Peter Selinger 2001-2017
</metadata>
<g transform="translate(0.000000,384.000000) scale(0.100000,-0.100000)"
fill="#000000" stroke="none">
<path d="M1777 3244 c-4 -4 -7 -27 -7 -50 l0 -43 -52 -16 c-70 -21 -73 -20
-98 20 -12 19 -29 35 -37 35 -23 0 -234 -120 -240 -137 -3 -8 3 -32 12 -54
l18 -40 -38 -39 c-44 -45 -51 -47 -93 -23 -16 9 -36 14 -44 11 -16 -7 -135
-206 -140 -235 -2 -11 12 -27 35 -42 41 -27 42 -34 16 -118 -9 -29 -14 -32
-57 -35 l-47 -3 0 -145 0 -145 47 -3 47 -3 16 -55 c9 -31 15 -60 13 -64 -2 -5
-19 -20 -38 -33 -20 -13 -34 -30 -32 -40 5 -28 124 -228 139 -234 8 -3 31 2
51 11 l35 17 44 -44 44 -44 -17 -35 c-9 -20 -14 -42 -11 -50 7 -19 213 -138
238 -138 12 0 28 14 41 36 20 33 23 35 57 29 69 -13 86 -26 91 -75 l5 -45 85
0 85 0 3 170 c3 192 2 195 -72 195 -23 0 -66 7 -96 15 -240 64 -411 281 -413
524 -3 273 195 514 453 552 41 6 86 14 100 18 l25 6 0 175 0 175 -80 3 c-45 1
-84 0 -88 -4z m108 -178 l0 -120 -70 -12 c-185 -31 -340 -143 -437 -314 -104
-182 -95 -438 22 -618 98 -153 261 -259 429 -280 l56 -7 0 -120 0 -120 -27 -3
c-26 -3 -28 0 -28 30 0 50 -16 64 -101 87 -103 29 -113 27 -139 -14 l-22 -36
-67 37 c-97 54 -94 50 -69 96 l22 39 -77 77 -77 77 -39 -22 c-30 -17 -41 -20
-49 -10 -11 15 -82 137 -82 142 0 2 16 13 35 25 19 12 35 29 35 39 0 28 -41
175 -52 188 -6 7 -28 13 -49 13 l-39 0 0 90 0 90 39 0 c21 0 43 6 49 13 12 14
52 160 52 189 0 9 -13 24 -29 33 -50 25 -50 22 36 163 l14 22 39 -22 40 -23
76 76 76 76 -21 41 c-24 46 -26 42 70 96 l67 37 22 -36 c14 -22 29 -35 43 -35
28 0 169 40 185 52 6 6 12 28 12 50 0 37 2 39 28 36 l27 -3 0 -119z"/>
<path d="M2347 3160 c-27 -23 -44 -30 -78 -30 -24 0 -49 -4 -55 -8 -6 -4 -30
-44 -53 -89 -23 -46 -47 -83 -54 -84 -6 0 -30 -1 -52 -2 -37 -2 -40 -4 -40
-32 0 -29 2 -30 49 -33 83 -5 90 0 135 92 52 108 84 122 148 66 66 -58 153
-26 153 57 -1 87 -87 122 -153 63z m88 -60 c0 -18 -6 -26 -23 -28 -27 -4 -40
22 -22 44 19 22 45 13 45 -16z"/>
<path d="M2620 2880 c-26 -28 -34 -30 -97 -30 l-68 -1 -33 -44 c-28 -38 -38
-45 -67 -45 -32 0 -35 -2 -35 -30 0 -30 1 -30 55 -30 53 0 55 1 85 45 30 43
33 45 82 45 42 0 56 -5 85 -30 45 -40 85 -40 124 -1 37 37 38 79 3 120 -36 44
-94 44 -134 1z m94 -47 c4 -9 1 -23 -7 -30 -7 -8 -21 -11 -30 -7 -17 6 -23 35
-10 47 12 13 41 7 47 -10z"/>
<path d="M1791 2804 c-303 -81 -449 -422 -304 -709 32 -62 132 -162 199 -197
143 -77 325 -77 468 0 65 34 164 133 198 198 78 146 75 339 -7 480 -37 64
-128 152 -191 186 -104 56 -248 73 -363 42z m250 -64 c35 -11 80 -30 99 -42
l35 -23 -57 -3 c-31 -2 -61 -8 -66 -15 -5 -7 -17 -41 -25 -76 -19 -73 -18 -75
51 -164 36 -47 49 -57 66 -53 11 3 31 9 42 12 19 5 23 1 29 -34 5 -34 2 -47
-19 -79 -14 -21 -26 -47 -26 -58 0 -10 23 -43 51 -71 l52 -52 -48 -51 c-51
-55 -144 -107 -209 -118 -37 -6 -38 -5 -34 23 3 25 10 30 58 45 l55 16 3 66
c3 66 2 67 -39 112 -69 74 -70 75 -153 11 -40 -31 -77 -56 -81 -56 -4 0 -29
16 -55 35 -57 42 -74 43 -170 10 -40 -14 -74 -24 -75 -22 -1 1 -7 22 -14 46
-7 23 -15 49 -18 57 -4 11 11 14 81 14 l87 0 19 44 19 45 58 3 58 3 53 88 c30
48 52 94 48 102 -3 8 -32 28 -65 45 -47 23 -65 39 -81 70 -12 23 -18 45 -15
50 11 17 99 39 161 39 36 1 89 -7 125 -19z m-321 -108 c22 -40 68 -78 114 -95
5 -2 -5 -29 -23 -60 l-32 -57 -63 0 -63 0 -17 -45 -18 -45 -65 0 -66 0 7 57
c10 85 64 188 131 252 31 29 59 50 63 47 3 -4 18 -28 32 -54z m540 -42 c47
-47 90 -174 90 -265 0 -52 -24 -152 -41 -170 -6 -6 -21 2 -40 22 l-31 31 26
45 c25 42 26 49 16 89 -28 108 -29 111 -64 105 -17 -4 -41 -9 -52 -12 -18 -6
-28 2 -54 40 -27 39 -31 52 -25 83 4 20 9 40 11 44 3 5 36 8 75 8 55 0 73 -4
89 -20z m-248 -457 c19 -18 28 -37 28 -58 0 -29 -3 -32 -57 -45 l-58 -15 -3
-59 -3 -59 -57 7 c-31 4 -85 20 -120 36 -62 29 -172 122 -172 146 0 6 28 22
62 33 l62 21 68 -46 c48 -33 71 -44 80 -37 7 5 39 31 71 56 33 26 62 47 65 47
3 0 19 -12 34 -27z"/>
<path d="M2685 2390 c-27 -28 -33 -29 -119 -32 -90 -3 -91 -3 -91 -28 0 -25 2
-25 89 -28 83 -3 92 -5 123 -32 93 -82 211 34 124 121 -40 40 -87 40 -126 -1z
m90 -60 c0 -18 -6 -26 -23 -28 -24 -4 -38 18 -28 44 3 9 15 14 28 12 17 -2 23
-10 23 -28z"/>
<path d="M2350 1961 c0 -27 3 -30 37 -33 36 -3 38 -5 66 -75 29 -72 30 -73 67
-73 28 0 45 -8 68 -30 49 -47 120 -41 147 11 32 62 2 125 -66 135 -30 5 -41 1
-71 -25 -55 -48 -69 -42 -104 42 l-29 72 -58 3 -57 3 0 -30z m329 -135 c15
-18 3 -46 -20 -46 -25 0 -35 26 -19 45 15 19 24 19 39 1z"/>
<path d="M2014 1766 c-15 -39 -1 -51 66 -56 l64 -5 26 -91 c15 -50 30 -96 34
-102 4 -7 30 -12 58 -12 42 0 56 -5 85 -30 24 -21 44 -30 69 -30 78 0 114 97
58 154 -37 36 -83 35 -127 -4 -22 -19 -46 -30 -65 -30 -33 0 -30 -6 -71 136
l-21 71 -53 7 c-83 10 -117 7 -123 -8z m424 -234 c4 -28 -24 -40 -45 -19 -14
13 -14 19 -3 32 18 22 44 15 48 -13z"/>
<path d="M780 1021 l0 -181 35 0 35 0 0 70 0 70 38 0 c39 0 39 0 66 -70 27
-68 29 -70 62 -70 19 0 34 2 34 6 0 3 -14 37 -30 76 -30 69 -30 71 -11 84 25
18 44 77 36 113 -3 16 -17 39 -31 52 -23 22 -36 24 -130 27 l-104 4 0 -181z
m178 103 c50 -35 16 -84 -59 -84 l-49 0 0 50 0 50 43 0 c23 0 53 -7 65 -16z"/>
<path d="M1620 1139 c0 -33 -3 -59 -7 -57 -5 2 -20 10 -35 17 -41 21 -100 1
-127 -43 -43 -68 -19 -180 44 -210 42 -20 65 -20 95 1 17 12 25 13 28 5 2 -7
17 -12 33 -12 l29 0 0 180 0 180 -30 0 -30 0 0 -61z m-14 -110 c11 -13 19 -35
19 -59 0 -92 -109 -112 -131 -24 -8 30 1 68 22 88 22 22 67 20 90 -5z"/>
<path d="M1764 1178 c-12 -40 46 -63 69 -27 16 26 1 49 -32 49 -22 0 -32 -6
-37 -22z"/>
<path d="M1921 1187 c-15 -18 -5 -44 20 -52 26 -9 51 13 47 39 -4 25 -49 34
-67 13z"/>
<path d="M2230 1020 l0 -180 110 0 110 0 0 30 0 30 -75 0 -75 0 0 150 0 150
-35 0 -35 0 0 -180z"/>
<path d="M2820 1020 l0 -180 29 0 c17 0 32 4 35 9 4 5 20 3 37 -6 65 -32 139
17 155 104 19 101 -89 200 -162 148 -29 -19 -34 -11 -34 52 0 52 0 53 -30 53
l-30 0 0 -180z m174 8 c9 -12 16 -38 16 -58 0 -51 -24 -80 -65 -80 -41 0 -65
29 -65 80 0 51 24 80 65 80 24 0 39 -7 49 -22z"/>
<path d="M1194 1100 c-22 -9 -64 -56 -64 -71 0 -17 51 -9 79 12 31 23 65 19
75 -8 8 -20 -5 -29 -56 -37 -86 -14 -123 -55 -102 -115 18 -50 108 -65 149
-25 13 14 15 14 15 0 0 -11 9 -16 30 -16 l30 0 0 101 c0 55 -5 109 -11 121
-20 37 -97 58 -145 38z m96 -159 c0 -23 -44 -61 -70 -61 -23 0 -42 24 -34 43
3 8 22 20 42 25 55 15 62 14 62 -7z"/>
<path d="M2560 1088 c-18 -13 -37 -33 -41 -45 -8 -21 -5 -23 26 -23 19 0 35 4
35 10 0 5 10 14 21 21 26 13 69 -2 69 -25 0 -16 -12 -21 -73 -32 -97 -17 -132
-110 -56 -149 35 -19 66 -19 102 -1 15 8 27 11 27 5 0 -5 16 -9 35 -9 l35 0 0
78 c0 105 -14 148 -53 172 -42 26 -87 25 -127 -2z m110 -144 c0 -27 -19 -51
-44 -58 -63 -16 -78 40 -16 61 48 16 60 16 60 -3z"/>
<path d="M1770 970 l0 -130 30 0 30 0 0 130 0 130 -30 0 -30 0 0 -130z"/>
<path d="M1920 970 l0 -130 30 0 30 0 0 130 0 130 -30 0 -30 0 0 -130z"/>
<path d="M1371 669 c-1 -44 0 -46 25 -45 35 1 53 28 34 51 -7 9 -22 14 -31 12
-11 -3 -20 2 -22 12 -3 9 -5 -5 -6 -30z m52 -1 c6 -19 -3 -38 -18 -38 -18 0
-28 17 -21 35 7 18 33 20 39 3z"/>
<path d="M1533 660 c0 -30 2 -43 4 -27 2 15 2 39 0 55 -2 15 -4 2 -4 -28z"/>
<path d="M1789 668 c5 -38 6 -39 9 -13 2 17 8 36 14 43 8 9 5 12 -9 12 -16 0
-18 -6 -14 -42z"/>
<path d="M1913 660 c0 -30 2 -43 4 -27 2 15 2 39 0 55 -2 15 -4 2 -4 -28z"/>
<path d="M2323 670 c0 -25 2 -35 4 -22 2 12 2 32 0 45 -2 12 -4 2 -4 -23z"/>
<path d="M1145 670 c8 -50 22 -59 33 -19 l10 34 13 -35 13 -35 12 30 c7 17 13
37 13 45 0 8 -6 2 -13 -15 l-13 -30 -8 28 c-10 36 -24 34 -32 -5 l-6 -32 -14
34 -13 35 5 -35z"/>
<path d="M1633 660 c0 -25 2 -35 4 -22 2 12 2 32 0 45 -2 12 -4 2 -4 -23z"/>
<path d="M2032 675 c-17 -37 -15 -43 13 -37 16 3 25 0 25 -9 0 -7 3 -10 6 -6
8 7 -15 77 -25 77 -4 0 -13 -11 -19 -25z m28 -16 c0 -5 -4 -9 -10 -9 -5 0 -10
7 -10 16 0 8 5 12 10 9 6 -3 10 -10 10 -16z"/>
<path d="M2452 664 c4 -49 23 -55 22 -7 -1 20 -7 39 -13 41 -9 3 -11 -7 -9
-34z"/>
<path d="M1280 675 c-23 -28 17 -72 42 -47 8 8 5 9 -11 5 -12 -3 -21 -1 -21 6
0 6 11 11 25 11 27 0 32 9 13 28 -16 16 -33 15 -48 -3z m40 -5 c0 -5 -7 -10
-15 -10 -8 0 -15 5 -15 10 0 6 7 10 15 10 8 0 15 -4 15 -10z"/>
<path d="M1681 671 c-13 -24 9 -57 33 -48 23 9 31 34 16 52 -17 20 -37 19 -49
-4z m44 -16 c0 -11 -8 -21 -17 -23 -14 -3 -18 3 -18 23 0 20 4 26 18 23 9 -2
17 -12 17 -23z"/>
<path d="M2121 651 c1 -35 2 -35 8 -7 8 39 27 43 39 9 9 -24 11 -25 11 -7 1
25 -16 41 -41 41 -14 0 -18 -8 -17 -36z"/>
<path d="M2219 674 c-14 -18 -3 -45 22 -51 8 -3 7 0 -3 7 -10 6 -18 17 -18 25
0 8 8 19 18 24 9 6 12 11 6 11 -6 0 -17 -7 -25 -16z"/>
<path d="M2366 670 c4 -14 7 -38 7 -53 0 -16 3 -25 7 -20 10 12 41 93 35 93
-3 0 -10 -12 -16 -27 l-11 -28 -14 30 c-12 24 -13 25 -8 5z"/>
<path d="M2573 683 c-7 -2 -13 -15 -13 -28 0 -27 35 -44 53 -26 9 9 5 11 -13
9 -19 -2 -25 2 -25 17 0 15 6 19 23 18 13 -2 21 1 17 7 -7 11 -22 12 -42 3z"/>
<path d="M2655 680 c-8 -14 3 -30 21 -30 8 0 14 -5 14 -11 0 -6 -9 -8 -21 -4
-15 5 -19 4 -15 -4 4 -6 13 -11 21 -11 22 0 29 22 12 35 -21 15 -22 29 -1 21
8 -3 12 -2 9 4 -8 13 -32 13 -40 0z"/>
<path d="M2260 655 c0 -14 5 -25 10 -25 6 0 10 11 10 25 0 14 -4 25 -10 25 -5
0 -10 -11 -10 -25z"/>
<path d="M2512 650 c0 -19 2 -27 5 -17 2 9 2 25 0 35 -3 9 -5 1 -5 -18z"/>
</g>
</svg>
