<?xml version="1.0" standalone="no"?>
<!DOCTYPE svg PUBLIC "-//W3C//DTD SVG 20010904//EN"
 "http://www.w3.org/TR/2001/REC-SVG-20010904/DTD/svg10.dtd">
<svg version="1.0" xmlns="http://www.w3.org/2000/svg"
 width="537.000000pt" height="537.000000pt" viewBox="0 0 537.000000 537.000000"
 preserveAspectRatio="xMidYMid meet">
<metadata>
Created by potrace 1.14, written by Peter Selinger 2001-2017
</metadata>
<g transform="translate(0.000000,537.000000) scale(0.100000,-0.100000)"
fill="#000000" stroke="none">
<path d="M815 4628 c14 -259 184 -460 534 -633 163 -81 163 -72 2 38 -113 78
-132 93 -184 142 -31 29 -72 93 -65 101 2 2 25 -3 51 -11 26 -8 71 -17 99 -20
45 -5 107 -30 143 -58 5 -4 42 -30 80 -59 67 -49 205 -166 253 -215 13 -13 26
-38 29 -56 4 -26 0 -38 -22 -60 -15 -15 -32 -27 -36 -27 -5 0 -37 15 -71 34
-244 131 -363 185 -563 253 -242 83 -338 150 -444 307 -50 74 -81 107 -68 72
4 -10 10 -30 13 -44 22 -101 99 -208 224 -310 l25 -21 -30 6 c-36 7 -247 8
-365 1 -157 -9 -270 28 -367 119 -25 24 -47 42 -49 40 -6 -5 32 -146 51 -190
35 -85 121 -150 265 -202 74 -26 250 -71 313 -80 18 -2 48 -6 67 -9 19 -3 60
-8 90 -11 30 -3 71 -7 90 -9 19 -3 116 -7 215 -10 192 -6 200 4 25 29 -76 11
-170 27 -210 36 -25 6 -54 12 -65 15 -11 2 -33 7 -50 11 -92 22 -131 36 -148
54 -19 21 -58 25 -86 9 -14 -7 -45 -1 -115 21 -100 31 -120 48 -61 51 65 3 90
5 125 12 19 4 127 8 240 10 264 5 298 -2 495 -101 319 -160 480 -259 622 -381
71 -62 122 -128 123 -159 0 -26 -122 28 -270 118 -129 78 -201 110 -330 147
-122 35 -152 42 -198 48 -19 2 -37 6 -41 8 -4 3 -34 8 -66 11 -33 4 -68 9 -77
10 -39 8 -176 18 -218 17 -129 -3 -270 2 -352 13 -21 3 -57 7 -80 11 -89 11
-172 25 -180 30 -4 3 -8 1 -8 -4 0 -18 127 -140 189 -181 135 -92 347 -164
543 -186 29 -3 60 -8 68 -10 32 -9 410 -29 410 -22 0 3 -28 10 -62 16 -143 25
-214 44 -324 87 -96 36 -233 117 -217 127 10 7 287 1 318 -6 11 -3 60 -12 108
-21 158 -30 350 -105 429 -170 28 -22 31 -32 54 -171 3 -22 7 -49 8 -60 4 -32
16 -83 42 -175 42 -148 95 -260 179 -380 50 -71 63 -87 123 -152 l25 -27 -27
-45 c-36 -61 -146 -170 -240 -236 -42 -30 -71 -56 -63 -58 23 -5 141 44 201
82 102 65 236 226 236 282 0 11 -18 37 -41 58 -34 34 -103 126 -157 211 -24
39 -74 151 -97 220 -33 99 -74 315 -60 315 4 0 107 -59 114 -65 1 -2 5 -28 6
-57 12 -200 85 -380 231 -569 32 -41 62 -79 68 -85 6 -7 34 -36 63 -66 l52
-54 -43 -65 c-23 -35 -79 -118 -123 -184 -44 -66 -103 -160 -132 -210 -29 -49
-75 -126 -102 -170 -77 -127 -101 -205 -83 -272 13 -47 121 -16 182 51 29 33
78 116 67 116 -3 0 -22 -9 -42 -20 -21 -11 -46 -20 -56 -20 -16 0 -18 5 -13
34 6 30 43 118 81 189 55 104 110 200 183 322 47 77 96 160 109 183 l25 44
-44 56 c-118 151 -206 314 -234 434 -11 43 -16 178 -7 178 17 0 171 -167 243
-264 40 -54 104 -147 141 -207 l68 -109 -33 -132 c-38 -149 -82 -345 -89 -398
-3 -19 -11 -69 -18 -110 -19 -114 -17 -367 4 -475 35 -177 96 -333 192 -487
l43 -70 38 59 c107 166 180 353 208 533 21 136 26 328 12 445 -4 33 -10 76
-12 95 -8 64 -16 115 -31 185 -2 11 -6 31 -9 45 -3 14 -14 61 -25 105 -33 130
-39 154 -45 183 -5 27 5 45 119 217 94 141 151 211 255 318 l77 79 3 -57 c3
-58 -12 -148 -33 -200 -4 -11 -16 -40 -26 -65 -9 -25 -31 -69 -48 -98 -17 -29
-31 -57 -31 -62 0 -6 -4 -10 -8 -10 -4 0 -16 -14 -26 -30 -9 -17 -40 -58 -67
-92 -30 -38 -47 -68 -44 -77 3 -9 38 -69 78 -133 40 -65 79 -131 87 -146 8
-15 18 -28 23 -30 4 -2 7 -8 7 -14 0 -6 15 -36 34 -67 45 -74 130 -243 155
-307 28 -73 16 -85 -49 -51 -29 15 -54 27 -57 27 -8 0 48 -91 75 -121 30 -34
102 -69 141 -69 26 0 31 4 37 35 3 19 3 52 -1 73 -7 41 -84 198 -120 246 -12
17 -48 76 -80 130 -70 120 -175 280 -187 284 -4 2 -8 7 -8 12 0 4 -20 39 -45
76 l-44 68 62 66 c34 36 64 67 67 70 16 14 101 133 139 193 91 147 138 297
145 463 1 36 6 41 56 71 30 18 58 33 63 33 10 0 0 -111 -13 -146 -5 -13 -8
-24 -5 -24 2 0 -8 -41 -21 -92 -39 -146 -136 -331 -228 -436 -74 -83 -86 -98
-86 -108 0 -13 14 -40 46 -92 34 -52 162 -182 181 -182 3 0 14 -6 22 -14 22
-20 169 -78 188 -74 10 2 -11 21 -53 49 -87 58 -164 128 -219 199 -62 81 -63
89 -11 146 63 69 60 64 114 145 102 155 143 255 192 472 20 86 24 110 36 212
9 70 28 88 174 160 85 42 258 91 395 111 57 9 335 14 335 6 0 -13 -115 -81
-196 -116 -70 -31 -124 -48 -271 -86 -51 -13 -57 -27 -10 -24 17 1 82 5 142 8
61 4 122 9 135 11 14 3 43 8 65 11 233 33 420 98 560 197 67 47 165 142 165
160 0 5 -17 6 -37 2 -21 -3 -72 -10 -113 -16 -41 -6 -86 -12 -100 -15 -40 -7
-200 -17 -255 -16 -27 1 -77 2 -110 3 -55 2 -163 -6 -225 -16 -164 -27 -243
-42 -330 -65 -135 -35 -226 -74 -350 -150 -124 -76 -265 -144 -285 -136 -14 5
-13 11 5 45 26 52 82 107 195 190 115 86 212 148 300 191 39 19 72 37 75 40 3
4 37 22 75 40 39 19 72 38 73 43 2 4 7 7 12 7 4 0 41 15 82 34 40 19 96 40
123 46 133 31 346 29 630 -5 11 -1 30 -3 43 -4 50 -3 9 -29 -91 -58 -59 -17
-67 -17 -120 -9 -31 5 -45 1 -70 -18 -18 -13 -48 -27 -67 -32 -19 -4 -39 -9
-45 -10 -37 -10 -133 -30 -185 -40 -14 -2 -36 -7 -50 -9 -59 -12 -77 -15 -115
-20 -22 -4 -49 -8 -60 -10 -11 -2 -26 -4 -32 -4 -7 -1 -13 -6 -13 -12 0 -8 40
-9 143 -4 78 5 158 9 177 10 19 1 60 5 90 9 30 4 73 9 95 12 45 6 155 24 170
28 6 2 28 7 50 11 22 5 42 10 45 10 3 1 38 11 79 24 119 36 201 80 257 137 43
44 55 65 77 135 15 46 30 100 33 119 l7 35 -54 -50 c-115 -107 -178 -130 -354
-125 -217 5 -350 4 -372 -4 -37 -12 -26 6 31 54 79 68 157 178 170 243 3 12 9
38 15 57 l10 35 -22 -26 c-46 -54 -57 -69 -51 -69 7 0 -68 -92 -106 -130 -59
-61 -205 -138 -310 -165 -3 -1 -12 -4 -20 -8 -8 -3 -51 -18 -95 -33 -44 -15
-101 -38 -127 -51 -27 -13 -48 -21 -48 -19 0 9 -337 -170 -345 -184 -16 -25
-81 28 -86 70 -5 39 13 61 120 153 212 184 291 235 390 253 42 7 92 18 111 24
43 12 40 13 40 -2 0 -25 -72 -103 -148 -160 -42 -32 -82 -62 -89 -68 -7 -5
-17 -10 -23 -10 -5 0 -10 -4 -10 -10 0 -5 -7 -10 -15 -10 -8 0 -15 -4 -15 -10
0 -5 -6 -10 -13 -10 -8 0 -24 -11 -37 -25 -13 -14 -20 -25 -16 -25 4 0 47 20
94 44 380 192 540 375 557 635 2 39 0 73 -5 76 -4 3 -23 -21 -41 -52 -45 -81
-105 -161 -153 -205 -44 -40 -163 -104 -211 -112 -16 -3 -59 -11 -95 -17 -126
-22 -255 -108 -485 -324 -147 -138 -173 -160 -222 -197 -24 -17 -43 -34 -43
-37 0 -3 17 -6 38 -7 86 -2 142 -23 142 -52 0 -10 -72 -91 -159 -180 -162
-165 -262 -287 -349 -428 -49 -80 -94 -175 -86 -183 2 -2 30 23 62 55 76 76
172 154 190 154 6 0 12 5 14 12 2 6 9 9 16 7 7 -2 -9 -26 -36 -55 -161 -174
-166 -179 -301 -334 -17 -19 -55 -68 -83 -108 l-53 -73 -20 24 c-11 13 -55 67
-97 118 -80 97 -90 108 -248 279 -52 56 -99 109 -104 117 -20 35 81 -36 168
-118 50 -48 93 -86 94 -84 10 9 -85 188 -144 273 -90 130 -159 211 -321 374
-98 98 -134 141 -130 153 10 24 69 45 127 45 27 0 50 3 50 8 -1 4 -22 24 -48
45 -63 50 -224 195 -336 303 -36 34 -166 125 -228 160 -55 31 -96 45 -167 58
-133 25 -233 75 -309 155 -35 37 -122 163 -122 177 -1 11 -36 54 -44 54 -3 0
-3 -33 -1 -72z m1930 -2515 c9 -50 18 -109 20 -130 2 -21 7 -63 10 -93 14
-137 3 -314 -29 -465 -10 -47 -59 -186 -67 -191 -16 -9 -54 114 -73 236 -26
165 -9 336 60 605 47 188 46 183 54 155 5 -14 16 -66 25 -117z"/>
<path d="M2185 4141 c-44 -11 -75 -30 -107 -64 -48 -53 -49 -134 -2 -109 30
15 91 21 103 9 6 -6 11 -8 11 -3 0 13 54 -25 79 -56 40 -50 73 -146 74 -213 1
-79 -20 -116 -78 -144 -25 -11 -45 -24 -45 -27 0 -14 105 8 132 28 42 30 79
116 79 187 1 61 -32 163 -77 238 -27 47 -25 49 33 29 21 -7 57 -16 80 -19 31
-5 53 -17 88 -52 26 -25 53 -45 61 -45 17 0 17 -1 0 48 -15 40 -9 48 22 29 6
-5 12 -5 12 -2 0 13 69 -43 152 -124 96 -93 167 -139 267 -171 72 -22 90 -26
203 -44 49 -8 39 11 -14 29 -72 23 -142 59 -218 113 -68 48 -190 160 -190 176
0 17 -101 106 -136 121 -51 21 -112 24 -173 9 -49 -13 -56 -13 -99 7 -108 48
-197 65 -257 50z"/>
<path d="M2690 3810 c0 -11 4 -20 9 -20 5 0 11 -10 15 -22 12 -50 98 -119 181
-148 62 -21 135 -27 135 -10 0 6 -8 10 -17 10 -23 0 -183 80 -183 91 0 5 -6 9
-12 9 -7 0 -37 25 -66 55 -30 30 -56 55 -58 55 -2 0 -4 -9 -4 -20z"/>
<path d="M2460 3785 c1 -6 7 -36 14 -67 8 -31 13 -58 11 -60 -2 -2 -6 -21 -9
-43 -8 -50 -47 -115 -86 -146 -18 -13 -41 -31 -53 -40 -21 -16 -20 -17 46 -97
79 -95 175 -248 240 -384 26 -54 51 -98 55 -98 5 0 19 35 31 78 30 103 77 202
138 293 62 92 79 112 171 210 81 84 80 87 -8 88 -133 1 -301 82 -417 200 -60
60 -70 48 -21 -26 38 -57 172 -192 245 -247 l53 -40 -53 -50 c-61 -59 -135
-150 -148 -183 -5 -13 -13 -23 -18 -23 -5 0 -24 29 -42 65 -18 36 -56 92 -85
124 l-53 58 27 53 c36 72 40 173 10 256 -18 53 -49 103 -48 79z"/>
<path d="M1510 3329 c-131 -89 -286 -147 -399 -151 -78 -2 -107 6 -122 33 -10
19 -11 19 -40 -5 -22 -19 -37 -24 -68 -21 -53 6 -152 41 -221 80 -62 35 -76
36 -57 2 104 -183 268 -294 464 -313 56 -6 235 -6 280 0 20 2 46 16 31 16 -72
0 -383 98 -366 115 2 2 35 7 73 10 64 5 129 18 165 32 8 3 23 8 32 9 58 12
238 148 268 203 14 27 13 27 -40 -10z"/>
<path d="M3818 3333 c14 -26 97 -102 154 -141 54 -37 174 -87 233 -97 34 -6
61 -9 145 -15 26 -2 -103 -62 -160 -75 -8 -1 -33 -8 -55 -13 -22 -6 -67 -16
-99 -22 -32 -7 -54 -15 -48 -19 20 -12 277 -13 346 -1 156 28 275 99 381 230
34 42 65 100 53 100 -6 0 -45 -16 -86 -36 -87 -42 -193 -75 -224 -69 -12 3
-31 13 -43 25 l-21 20 -22 -22 c-26 -26 -89 -36 -157 -25 -27 4 -61 10 -75 12
-59 8 -205 77 -270 125 -55 42 -64 46 -52 23z"/>
<path d="M1521 2995 c-86 -70 -220 -130 -331 -150 -69 -13 -210 -7 -266 10
-43 13 -33 -14 22 -61 98 -85 215 -127 342 -123 103 3 222 49 222 86 0 12 -3
13 -13 5 -24 -20 -119 -29 -171 -16 -60 16 -77 30 -45 39 63 17 149 62 202
105 20 16 107 133 107 144 0 13 -17 3 -69 -39z"/>
<path d="M3780 3033 c1 -14 44 -78 76 -115 44 -50 125 -104 196 -129 54 -20
59 -24 42 -36 -10 -7 -27 -14 -38 -15 -76 -6 -136 -3 -169 9 -29 9 -38 10 -35
1 5 -13 82 -60 108 -67 8 -2 27 -7 43 -11 30 -9 166 -7 209 4 84 20 184 79
238 140 33 37 34 39 10 32 -41 -13 -252 -16 -300 -5 -25 6 -52 12 -60 14 -69
15 -215 93 -268 143 -48 44 -52 47 -52 35z"/>
<path d="M1680 2762 c0 -19 -103 -118 -165 -157 -127 -82 -292 -141 -397 -144
-43 -1 -34 -15 25 -38 91 -37 122 -44 214 -48 90 -3 177 24 248 78 48 37 65
65 35 59 -40 -9 -87 -9 -103 0 -17 9 -14 13 25 40 77 54 156 184 128 212 -7 7
-10 6 -10 -2z"/>
<path d="M3675 2738 c14 -64 78 -149 143 -190 24 -14 30 -23 23 -32 -12 -14
-88 -15 -109 -2 -22 13 -25 -1 -5 -27 25 -35 111 -84 173 -100 88 -23 224 -8
314 33 25 11 50 20 55 20 22 0 10 20 -11 21 -13 0 -32 2 -43 4 -11 2 -36 7
-55 10 -155 28 -425 185 -461 268 -16 38 -32 34 -24 -5z"/>
<path d="M1768 2478 c-95 -124 -240 -213 -366 -222 -45 -3 -24 -21 44 -37 135
-31 253 -23 359 26 54 24 80 47 48 41 -170 -32 -189 -28 -130 24 36 31 65 82
73 127 3 15 6 29 8 32 2 3 0 14 -3 25 -6 16 -10 14 -33 -16z"/>
<path d="M3567 2481 c-9 -35 33 -134 74 -174 22 -21 37 -42 34 -47 -4 -7 -64
-4 -92 5 -8 3 -13 -4 -13 -14 0 -32 96 -56 210 -54 83 1 201 21 216 36 3 3
-21 11 -53 17 -130 28 -285 127 -338 218 -22 37 -31 40 -38 13z"/>
<path d="M3505 2270 c3 -5 15 -10 26 -10 11 0 17 5 14 10 -3 6 -15 10 -26 10
-11 0 -17 -4 -14 -10z"/>
<path d="M2375 2064 c-8 -20 -15 -41 -15 -47 0 -16 -103 -242 -112 -245 -4 -2
-8 -9 -8 -16 0 -6 -13 -36 -28 -66 -32 -61 -82 -182 -87 -212 -2 -11 -7 -28
-10 -38 -14 -44 -17 -72 -21 -180 -4 -128 11 -182 52 -188 34 -5 79 42 102
105 53 147 87 313 52 253 -51 -90 -79 -115 -102 -92 -10 10 -13 77 -4 117 15
75 70 252 111 360 50 129 84 225 80 225 -2 0 0 14 5 30 12 41 3 38 -15 -6z"/>
<path d="M2970 2083 c0 -21 31 -117 60 -188 17 -44 33 -84 34 -90 2 -5 8 -23
15 -40 17 -41 41 -107 46 -125 2 -8 13 -49 24 -90 39 -142 43 -192 18 -217
-13 -14 -18 -13 -39 3 -13 10 -33 35 -43 56 -21 44 -40 51 -30 11 4 -16 8 -35
10 -43 11 -51 50 -180 65 -215 21 -49 63 -86 94 -82 41 6 56 59 52 187 -2 63
-7 127 -10 141 -19 85 -56 182 -123 319 -94 195 -105 219 -138 308 -24 65 -35
86 -35 65z"/>
</g>
</svg>
